<svg
            width="48"
            height="48"
            viewBox="0 0 400 400"
            fill="none"
            xmlns="http://www.w3.org/2000/svg"
          >
            <rect width="400" height="400" rx="200" fill="white" />
            <path
              d="M332 248.25C332 286 305.71 309.97 257.52 309.97H246.89C248.45 308.84 249.97 307.68 251.42 306.45C267.98 292.36 276.74 272.24 276.74 248.25C276.74 230.18 271.2 214.75 260.27 202.4C258.1 199.94 255.71 197.63 253.13 195.47C253.36 195.23 253.58 195 253.8 194.77C264.78 183.15 270.34 168.12 270.34 150.09C270.34 138.77 268.23 128.15 264.07 118.53C259.88 108.84 253.71 100.38 245.74 93.3798C244.4 92.1998 243 91.0898 241.57 90.0098H257.19C298.65 90.0098 325.61 113.65 325.61 150.09C325.61 163.88 321.56 174.71 313.81 182.92C306.06 191.13 298.73 195.62 289.63 196.6C289.63 196.6 290.87 196.6 291.64 196.83C313.17 203.17 332.01 218.68 332.01 248.26L332 248.25ZM216.39 196.6C225.49 195.62 232.82 191.13 240.57 182.92C248.32 174.71 252.37 163.88 252.37 150.09C252.37 113.65 225.41 90.0098 183.95 90.0098H151.09V196.6H216.39ZM67 90.0098V196.6L151.09 90.0098H67ZM67 196.6V309.98H126.69V196.6H67ZM218.4 196.83C217.63 196.6 216.39 196.6 216.39 196.6L126.69 309.98H184.29C232.49 309.98 258.77 286.01 258.77 248.26C258.77 218.68 239.93 203.17 218.4 196.83Z"
              fill="url(#paint0_linear_2632_1230)"
            />
            <path
              d="M216.39 196.6C225.49 195.62 232.82 191.13 240.57 182.92C248.32 174.71 252.37 163.88 252.37 150.09C252.37 113.65 225.41 90.0098 183.95 90.0098H151.09V196.6H216.39Z"
              fill="url(#paint1_linear_2632_1230)"
            />
            <path
              d="M291.629 196.82C290.859 196.59 289.619 196.59 289.619 196.59C298.719 195.61 306.049 191.12 313.799 182.91C321.549 174.7 325.599 163.87 325.599 150.08C325.599 113.64 298.639 90 257.179 90H243.779C285.239 90 312.199 113.64 312.199 150.08C312.199 163.87 308.149 174.7 300.399 182.91C292.649 191.12 285.319 195.61 276.219 196.59C276.219 196.59 277.459 196.59 278.229 196.82C299.759 203.16 318.599 218.67 318.599 248.25C318.599 285.26 293.329 309 246.939 309.93C246.919 309.94 246.899 309.96 246.879 309.97H257.509C305.709 309.97 331.989 286 331.989 248.25C331.989 218.67 313.149 203.16 291.619 196.82H291.629Z"
              fill="url(#paint2_linear_2632_1230)"
            />
            <path
              d="M218.34 196.82C217.57 196.59 216.33 196.59 216.33 196.59C225.43 195.61 232.76 191.12 240.51 182.91C248.26 174.7 252.31 163.87 252.31 150.08C252.31 113.64 225.35 90 183.89 90H170.49C211.95 90 238.91 113.64 238.91 150.08C238.91 163.87 234.86 174.7 227.11 182.91C219.36 191.12 212.03 195.61 202.93 196.59H216.33L213.7 200C213.7 200 213.84 200.06 213.91 200.09C231.45 207.85 245.32 222.87 245.32 248.25C245.32 285.26 220.05 309 173.66 309.93C173.64 309.94 173.62 309.96 173.6 309.97H184.23C232.43 309.97 258.71 286 258.71 248.25C258.71 218.67 239.87 203.16 218.34 196.82Z"
              fill="url(#paint3_linear_2632_1230)"
            />
            <path
              d="M67 196.6L151.09 90H143.17L67 185.51V196.6Z"
              fill="url(#paint4_linear_2632_1230)"
            />
            <path
              d="M126.679 196.6H119.779V309.97H126.679V196.6Z"
              fill="url(#paint5_linear_2632_1230)"
            />
            <defs>
              <linearGradient
                id="paint0_linear_2632_1230"
                x1="67.94"
                y1="89.05"
                x2="294.29"
                y2="315.39"
                gradientUnits="userSpaceOnUse"
              >
                <stop stop-color="#FF6969" />
                <stop offset="0.37" stop-color="#6C00FA" />
                <stop offset="0.82" stop-color="#0049FF" />
                <stop offset="1" stop-color="#47DEEA" />
              </linearGradient>
              <linearGradient
                id="paint1_linear_2632_1230"
                x1="40.7031"
                y1="110.72"
                x2="225.122"
                y2="344.564"
                gradientUnits="userSpaceOnUse"
              >
                <stop stop-color="#FF6969" />
                <stop offset="0.37" stop-color="#6C00FA" />
                <stop offset="0.82" stop-color="#0049FF" />
                <stop offset="1" stop-color="#47DEEA" />
              </linearGradient>
              <linearGradient
                id="paint2_linear_2632_1230"
                x1="-60.623"
                y1="132.492"
                x2="21.6631"
                y2="379.694"
                gradientUnits="userSpaceOnUse"
              >
                <stop stop-color="#FF6969" />
                <stop offset="0.37" stop-color="#6C00FA" />
                <stop offset="0.82" stop-color="#0049FF" />
                <stop offset="1" stop-color="#47DEEA" />
              </linearGradient>
              <linearGradient
                id="paint3_linear_2632_1230"
                x1="-60.6085"
                y1="132.492"
                x2="21.685"
                y2="379.688"
                gradientUnits="userSpaceOnUse"
              >
                <stop stop-color="#FF6969" />
                <stop offset="0.37" stop-color="#6C00FA" />
                <stop offset="0.82" stop-color="#0049FF" />
                <stop offset="1" stop-color="#47DEEA" />
              </linearGradient>
              <linearGradient
                id="paint4_linear_2632_1230"
                x1="332.01"
                y1="199.99"
                x2="65.0145"
                y2="199.99"
                gradientUnits="userSpaceOnUse"
              >
                <stop stop-color="#FF6969" />
                <stop offset="0.37" stop-color="#6C00FA" />
                <stop offset="1" stop-color="#29A6DD" />
              </linearGradient>
              <linearGradient
                id="paint5_linear_2632_1230"
                x1="93.1692"
                y1="223.22"
                x2="153.299"
                y2="283.35"
                gradientUnits="userSpaceOnUse"
              >
                <stop stop-color="#6C00FA" />
                <stop offset="0.46" stop-color="#0049FF" />
                <stop offset="1" stop-color="#47DEEA" />
              </linearGradient>
            </defs>
          </svg>